HIERARCHY
ROOT Hips
{
	OFFSET 0.000000 0.000000 0.000000
	CHANNELS 6 Xposition Yposition Zposition Zrotation Yrotation Xrotation 
	JOINT LHipJoint
	{
		OFFSET 0.000000 0.000000 0.000000
		CHANNELS 3 Zrotation Yrotation Xrotation
		JOINT LeftUpLeg
		{
			OFFSET 1.363060 -1.794630 0.839290
			CHANNELS 3 Zrotation Yrotation Xrotation
			JOINT LeftLeg
			{
				OFFSET 2.448110 -6.726130 0.000000
				CHANNELS 3 Zrotation Yrotation Xrotation
				JOINT LeftFoot
				{
					OFFSET 2.562200 -7.039590 0.000000
					CHANNELS 3 Zrotation Yrotation Xrotation
					JOINT LeftToeBase
					{
						OFFSET 0.157640 -0.433110 2.322550
						CHANNELS 3 Zrotation Yrotation Xrotation
						End Site
						{
							OFFSET 0.000000 0.000000 0.000000
						}
					}
				}
			}
		}
	}
	JOINT RHipJoint
	{
		OFFSET 0.000000 0.000000 0.000000
		CHANNELS 3 Zrotation Yrotation Xrotation
		JOINT RightUpLeg
		{
			OFFSET -1.305520 -1.794630 0.839290
			CHANNELS 3 Zrotation Yrotation Xrotation
			JOINT RightLeg
			{
				OFFSET -2.542530 -6.985550 0.000000
				CHANNELS 3 Zrotation Yrotation Xrotation
				JOINT RightFoot
				{
					OFFSET -2.568260 -7.056230 0.000000
					CHANNELS 3 Zrotation Yrotation Xrotation
					JOINT RightToeBase
					{
						OFFSET -0.164730 -0.452590 2.363150
						CHANNELS 3 Zrotation Yrotation Xrotation
						End Site
						{
							OFFSET 0.000000 0.000000 0.000000
						}
					}
				}
			}
		}
	}
	JOINT LowerBack
	{
		OFFSET 0.000000 0.000000 0.000000
		CHANNELS 3 Zrotation Yrotation Xrotation
		JOINT Spine
		{
			OFFSET 0.028270 2.035590 -0.193380
			CHANNELS 3 Zrotation Yrotation Xrotation
			JOINT Spine1
			{
				OFFSET 0.056720 2.048850 -0.042750
				CHANNELS 3 Zrotation Yrotation Xrotation
				JOINT Neck
				{
					OFFSET 0.000000 0.000000 0.000000
					CHANNELS 3 Zrotation Yrotation Xrotation
					JOINT Neck1
					{
						OFFSET -0.054170 1.746240 0.172020
						CHANNELS 3 Zrotation Yrotation Xrotation
						JOINT Head
						{
							OFFSET 0.104070 1.761360 -0.123970
							CHANNELS 3 Zrotation Yrotation Xrotation
							End Site
							{
								OFFSET 0.000000 0.000000 0.000000
							}
						}
					}
				}
				JOINT LeftShoulder
				{
					OFFSET 0.000000 0.000000 0.000000
					CHANNELS 3 Zrotation Yrotation Xrotation
					JOINT LeftArm
					{
						OFFSET 3.362410 1.200890 -0.311210
						CHANNELS 3 Zrotation Yrotation Xrotation
						JOINT LeftForeArm
						{
							OFFSET 4.983000 -0.000000 -0.000000
							CHANNELS 3 Zrotation Yrotation Xrotation
							JOINT LeftHand
							{
								OFFSET 3.483560 -0.000000 -0.000000
								CHANNELS 3 Zrotation Yrotation Xrotation
								JOINT LeftFingerBase
								{
									OFFSET 0.000000 0.000000 0.000000
									CHANNELS 3 Zrotation Yrotation Xrotation
									JOINT LeftHandIndex1
									{
										OFFSET 0.715260 -0.000000 -0.000000
										CHANNELS 3 Zrotation Yrotation Xrotation
										End Site
										{
											OFFSET 0.000000 0.000000 0.000000
										}
									}
								}
								JOINT LThumb
								{
									OFFSET 0.000000 0.000000 0.000000
									CHANNELS 3 Zrotation Yrotation Xrotation
									End Site
									{
										OFFSET 0.000000 0.000000 0.000000
									}
								}
							}
						}
					}
				}
				JOINT RightShoulder
				{
					OFFSET 0.000000 0.000000 0.000000
					CHANNELS 3 Zrotation Yrotation Xrotation
					JOINT RightArm
					{
						OFFSET -3.136600 1.374050 -0.404650
						CHANNELS 3 Zrotation Yrotation Xrotation
						JOINT RightForeArm
						{
							OFFSET -5.241900 -0.000000 -0.000000
							CHANNELS 3 Zrotation Yrotation Xrotation
							JOINT RightHand
							{
								OFFSET -3.444170 -0.000000 -0.000000
								CHANNELS 3 Zrotation Yrotation Xrotation
								JOINT RightFingerBase
								{
									OFFSET 0.000000 0.000000 0.000000
									CHANNELS 3 Zrotation Yrotation Xrotation
									JOINT RightHandIndex1
									{
										OFFSET -0.622530 -0.000000 -0.000000
										CHANNELS 3 Zrotation Yrotation Xrotation
										End Site
										{
											OFFSET 0.000000 0.000000 0.000000
										}
									}
								}
								JOINT RThumb
								{
									OFFSET 0.000000 0.000000 0.000000
									CHANNELS 3 Zrotation Yrotation Xrotation
									End Site
									{
										OFFSET 0.000000 0.000000 0.000000
									}
								}
							}
						}
					}
				}
			}
		}
	}
}
MOTION
Frames: 4
Frame Time: 0.008333
1.200276 17.049443 4.572779 -5.804529 -4.592722 7.522599 11.295233 1.979248 -2.599826 -22.430126 -16.340271 -2.625236 -0.236489 7.964737 22.479842 -0.348211 12.794489 -20.528553 0.000000 -0.037500 -0.103000 -14.375563 -2.836486 -3.223264 36.059821 13.382534 -1.988506 1.516840 -6.062753 17.248528 0.981326 -13.041228 -13.348872 -0.034800 1.204300 -3.311200 7.106128 -0.163739 -0.098266 0.964234 -0.379703 -5.485700 -5.623337 -0.589737 -3.518162 3.542864 -0.979485 -16.209606 5.180313 -2.582856 17.567839 -2.561900 0.550800 15.874500 13.743953 -10.221033 2.907773 -98.880929 12.853561 9.381459 26.974727 -34.860134 -5.581635 -0.317989 4.422506 15.796635 2.571800 17.946500 0.989100 -7.125000 0.000000 0.000000 -20.882000 42.758600 1.212400 -12.947358 12.484116 2.666174 95.719747 -4.823976 16.568122 -19.529256 30.232709 -3.275805 -1.347432 -2.874542 12.444642 -12.151320 -7.883617 0.959200 7.125000 0.000000 0.000000 12.493900 -34.583400 3.259700 
1.200169 17.049443 4.574827 -5.798862 -4.563662 7.524907 11.297556 1.978617 -2.597502 -22.441743 -16.372553 -2.618288 -0.236361 7.967366 22.484662 -0.347339 12.795970 -20.537389 0.000000 -0.030600 -0.084000 -14.373229 -2.837821 -3.228223 36.051301 13.351861 -1.974935 1.518245 -6.052438 17.227146 0.979927 -13.038009 -13.366099 -0.033600 1.183000 -3.252600 7.102574 -0.148932 -0.122463 0.957642 -0.359262 -5.483913 -5.648024 -0.580196 -3.493973 3.552321 -1.001288 -16.237582 5.169036 -2.618318 17.569004 -2.573800 0.538300 15.881900 13.740269 -10.216934 2.906282 -98.858781 12.870616 9.403915 26.958333 -34.838318 -5.575333 -0.308073 4.420535 15.804339 2.623825 17.933620 0.998200 -7.125000 0.000000 0.000000 -20.841000 42.749800 1.214500 -12.946720 12.482973 2.668737 95.748224 -4.839226 16.591971 -19.582640 30.298739 -3.290341 -1.334159 -2.892584 12.420402 -12.098209 -7.984072 0.973400 7.125000 0.000000 0.000000 12.538500 -34.667500 3.245600 
1.199522 17.049875 4.574396 -5.810194 -4.552533 7.540009 11.296133 1.978065 -2.600147 -22.414920 -16.353451 -2.643880 -0.237315 7.966088 22.477406 -0.349218 12.779636 -20.497545 0.000100 -0.057900 -0.159100 -14.376295 -2.835788 -3.225846 36.067906 13.377464 -1.985404 1.520178 -6.053377 17.221184 0.985573 -13.072284 -13.354793 -0.037100 1.242800 -3.417000 7.102969 -0.143350 -0.144772 0.958836 -0.355850 -5.481358 -5.632589 -0.577652 -3.462369 3.545404 -0.992176 -16.284532 5.155716 -2.602846 17.564641 -2.584200 0.542600 15.892800 13.742953 -10.211261 2.903166 -98.874705 12.853647 9.392984 26.922759 -34.815872 -5.568111 -0.305596 4.432014 15.794041 2.639916 17.998758 1.006000 -7.125000 0.000000 0.000000 -20.844900 42.801000 1.187100 -12.936748 12.474275 2.672261 95.732154 -4.805697 16.719326 -19.678103 30.407438 -3.323771 -1.302051 -2.972216 12.244847 -11.999661 -8.449208 1.047800 7.125000 0.000000 0.000000 12.652900 -35.058300 3.153300 
1.198983 17.050090 4.576013 -5.797717 -4.514546 7.544633 11.297605 1.977245 -2.597833 -22.424161 -16.372773 -2.647815 -0.238968 7.965865 22.472100 -0.345387 12.757717 -20.498421 0.000100 -0.047700 -0.130900 -14.374647 -2.836334 -3.228203 36.057998 13.363721 -1.973333 1.520040 -6.048133 17.212863 0.987466 -13.093460 -13.380924 -0.033900 1.189000 -3.269100 7.085557 -0.138719 -0.172274 0.955612 -0.350439 -5.482399 -5.638442 -0.574757 -3.461090 3.531488 -1.003936 -16.266924 5.155798 -2.615458 17.561826 -2.580100 0.534800 15.880300 13.740518 -10.213317 2.906740 -98.875662 12.898971 9.406023 26.918983 -34.808576 -5.564922 -0.303597 4.429349 15.804916 2.646885 17.980699 1.006000 -7.125000 0.000000 0.000000 -20.835200 42.786700 1.194200 -12.940663 12.474538 2.670867 95.753744 -4.812940 16.699035 -19.667748 30.395769 -3.313871 -1.305135 -2.936750 12.360062 -11.979576 -8.247135 1.011600 7.125000 0.000000 0.000000 12.644400 -34.889400 3.204300 
